HIERARCHY
ROOT Hips
{
	OFFSET 0.000000 0.000000 0.000000 
	CHANNELS 6 Xposition Yposition Zposition Zrotation Xrotation Yrotation
	JOINT Spine
	{
		OFFSET -0.000000 8.285670 0.000000 
		CHANNELS 3 Zrotation Xrotation Yrotation
		JOINT Spine1
		{
			OFFSET -0.000000 20.280901 0.000000 
			CHANNELS 3 Zrotation Xrotation Yrotation
			JOINT Neck
			{
				OFFSET -0.000000 22.301800 0.000000 
				CHANNELS 3 Zrotation Xrotation Yrotation
				JOINT Head
				{
					OFFSET -0.000000 15.661900 2.020890 
					CHANNELS 3 Zrotation Xrotation Yrotation
					End Site
					{
						OFFSET -0.000000 20.208887 0.000000 
					}
				}
			}
			JOINT LeftShoulder
			{
				OFFSET 3.887530 15.503099 -0.416373 
				CHANNELS 3 Zrotation Xrotation Yrotation
				JOINT LeftArm
				{
					OFFSET 20.767099 0.000000 0.000000 
					CHANNELS 3 Zrotation Xrotation Yrotation
					JOINT LeftForeArm
					{
						OFFSET 26.608500 0.000000 0.000000 
						CHANNELS 3 Zrotation Xrotation Yrotation
						JOINT LeftHand
						{
							OFFSET 25.563202 0.000000 0.000000 
							CHANNELS 3 Zrotation Xrotation Yrotation
							End Site
							{
								OFFSET 15.156667 0.000000 0.000000 
							}
						}
					}
				}
			}
			JOINT RightShoulder
			{
				OFFSET -4.190880 15.503099 -0.416373 
				CHANNELS 3 Zrotation Xrotation Yrotation
				JOINT RightArm
				{
					OFFSET -20.767099 0.000000 0.000000 
					CHANNELS 3 Zrotation Xrotation Yrotation
					JOINT RightForeArm
					{
						OFFSET -26.608500 0.000000 0.000000 
						CHANNELS 3 Zrotation Xrotation Yrotation
						JOINT RightHand
						{
							OFFSET -25.563202 0.000000 0.000000 
							CHANNELS 3 Zrotation Xrotation Yrotation
							End Site
							{
								OFFSET -15.156667 0.000000 0.000000 
							}
						}
					}
				}
			}
		}
	}
	JOINT LeftUpLeg
	{
		OFFSET 10.104500 0.000000 0.000000 
		CHANNELS 3 Zrotation Xrotation Yrotation
		JOINT LeftLeg
		{
			OFFSET -0.000000 -50.743301 0.000000 
			CHANNELS 3 Zrotation Xrotation Yrotation
			JOINT LeftFoot
			{
				OFFSET -0.000000 -35.579197 0.000000 
				CHANNELS 3 Zrotation Xrotation Yrotation
				JOINT LeftToeBase
				{
					OFFSET -0.000000 -6.567910 15.156700 
					CHANNELS 3 Zrotation Xrotation Yrotation
					End Site
					{
						OFFSET -0.000000 0.000000 4.041778 
					}
				}
			}
		}
	}
	JOINT RightUpLeg
	{
		OFFSET -10.104500 0.000000 0.000000 
		CHANNELS 3 Zrotation Xrotation Yrotation
		JOINT RightLeg
		{
			OFFSET -0.000000 -50.743301 0.000000 
			CHANNELS 3 Zrotation Xrotation Yrotation
			JOINT RightFoot
			{
				OFFSET -0.000000 -35.579197 0.000000 
				CHANNELS 3 Zrotation Xrotation Yrotation
				JOINT RightToeBase
				{
					OFFSET -0.000000 -6.567910 15.156700 
					CHANNELS 3 Zrotation Xrotation Yrotation
					End Site
					{
						OFFSET -0.000000 0.000000 4.041778 
					}
				}
			}
		}
	}
}
MOTION
Frames: 7
Frame Time: 0.010000
0.000000 90.101921 0.000000 -0.120449 6.317882 0.321042 -4.017657 -8.121810 -3.428282 9.551730 5.179869 -1.481491 -7.107284 13.100317 -3.529732 9.730935 -20.346848 -4.910922 -5.279850 4.718803 0.119409 -74.789635 25.972187 -15.431196 7.760532 1.238184 -11.258799 -26.122234 -0.055489 8.861518 -9.966715 3.691482 -3.051882 73.644394 25.676805 25.360830 -2.335016 5.219446 2.062309 31.811481 3.261975 -7.026107 6.319598 -11.115299 -7.041285 -0.281018 23.578176 -23.772322 15.363536 -24.250391 42.379593 0.000000 0.000000 0.000000 -5.621582 -6.988993 -10.804770 7.621542 13.529825 -0.022524 -7.356527 -24.378370 -4.032327 0.000000 0.000000 0.000000 
0.016739 90.101295 0.012140 -0.127701 6.320862 0.345171 -3.964431 -8.124622 -3.440389 9.499317 5.182944 -1.484567 -7.116923 13.089337 -3.523050 9.741612 -20.316574 -4.907922 -5.281117 4.724193 0.120347 -74.785751 25.984732 -15.439313 7.766863 1.232953 -11.254454 -26.127245 -0.058718 8.852577 -9.963902 3.699733 -3.059641 73.640915 25.671730 25.372072 -2.331165 5.219722 2.051587 31.808319 3.265584 -7.014213 6.300880 -11.121607 -7.060769 -0.255233 23.595406 -23.787388 15.372335 -24.262363 42.389530 0.000000 0.000000 0.000000 -5.639585 -6.975695 -10.854983 7.643829 13.529881 0.011062 -7.361873 -24.373699 -4.041499 0.000000 0.000000 0.000000 
0.032947 90.100693 0.024227 -0.134802 6.323885 0.368860 -3.912893 -8.127444 -3.452097 9.448506 5.186009 -1.487566 -7.126355 13.078339 -3.516442 9.751854 -20.286448 -4.904982 -5.282288 4.729531 0.121315 -74.782005 25.997118 -15.447432 7.773141 1.227812 -11.249897 -26.132164 -0.061840 8.843531 -9.961290 3.707916 -3.067306 73.637482 25.666811 25.383362 -2.327212 5.220020 2.040862 31.805307 3.269167 -7.002382 6.282755 -11.127674 -7.079683 -0.230242 23.612226 -23.801855 15.380960 -24.273935 42.399235 0.000000 0.000000 0.000000 -5.656931 -6.962750 -10.903712 7.665288 13.529949 0.043330 -7.366663 -24.369259 -4.049887 0.000000 0.000000 0.000000 
0.048167 90.100121 0.036224 -0.141570 6.327013 0.390867 -3.864425 -8.130499 -3.462981 9.400535 5.189493 -1.490431 -7.135214 13.067497 -3.510074 9.761206 -20.257015 -4.902103 -5.283341 4.734318 0.122186 -74.778580 26.009249 -15.455079 7.779556 1.222759 -11.245165 -26.137014 -0.064871 8.834438 -9.958703 3.715899 -3.074737 73.633965 25.662176 25.394642 -2.323368 5.220294 2.030177 31.802830 3.272703 -6.990596 6.265891 -11.133308 -7.097818 -0.207114 23.628260 -23.815256 15.389846 -24.284546 42.409008 0.000000 0.000000 0.000000 -5.673163 -6.950481 -10.949542 7.685639 13.530069 0.073841 -7.371159 -24.365135 -4.057880 0.000000 0.000000 0.000000 
0.062064 90.099609 0.048109 -0.147895 6.330207 0.410741 -3.820129 -8.133631 -3.472833 9.356446 5.193194 -1.492982 -7.143941 13.057419 -3.503782 9.770339 -20.229074 -4.899232 -5.284395 4.738866 0.122912 -74.775307 26.020826 -15.462498 7.786146 1.217881 -11.239888 -26.141838 -0.067688 8.825117 -9.956174 3.723711 -3.081634 73.630363 25.657684 25.405846 -2.319617 5.220600 2.019637 31.800951 3.276158 -6.979033 6.250606 -11.138242 -7.115144 -0.186415 23.643013 -23.826258 15.398350 -24.294085 42.418129 0.000000 0.000000 0.000000 -5.687760 -6.939027 -10.991624 7.703998 13.530088 0.101577 -7.374694 -24.361609 -4.064462 0.000000 0.000000 0.000000 
0.074428 90.099129 0.059859 -0.153753 6.333607 0.428323 -3.780614 -8.137052 -3.481426 9.316924 5.197308 -1.495255 -7.151999 13.048123 -3.497805 9.778148 -20.202898 -4.896442 -5.285420 4.742886 0.123553 -74.772362 26.031998 -15.469492 7.792940 1.213136 -11.234033 -26.146624 -0.070304 8.815574 -9.953824 3.731295 -3.088005 73.626534 25.653481 25.416996 -2.315771 5.220863 2.009431 31.799761 3.279438 -6.967785 6.237203 -11.142447 -7.131922 -0.168696 23.656458 -23.834370 15.406829 -24.302374 42.426952 0.000000 0.000000 0.000000 -5.700581 -6.928688 -11.029123 7.720479 13.530264 0.126494 -7.377671 -24.358788 -4.070218 0.000000 0.000000 0.000000 
0.085147 90.098686 0.071462 -0.159091 6.336953 0.443110 -3.746124 -8.140505 -3.488660 9.282022 5.202032 -1.497192 -7.159012 13.039203 -3.492250 9.784512 -20.178627 -4.893785 -5.286180 4.746145 0.124081 -74.769875 26.042492 -15.476009 7.799948 1.208708 -11.227521 -26.151369 -0.072639 8.805927 -9.951584 3.738222 -3.093727 73.622787 25.649799 25.427687 -2.312215 5.221041 1.999599 31.799471 3.282520 -6.956739 6.225852 -11.145549 -7.148771 -0.154571 23.668203 -23.838202 15.415317 -24.309277 42.435123 0.000000 0.000000 0.000000 -5.711360 -6.919358 -11.061849 7.734615 13.530540 0.147990 -7.379511 -24.356737 -4.074436 0.000000 0.000000 0.000000 
